<svg xmlns="http://www.w3.org/2000/svg" width="100%" height="100%" viewBox="0 0 48 48" fill-rule="evenodd" stroke-linejoin="round" stroke-miterlimit="2">
    <style>
        <![CDATA[
        .rotate {
            display: inline-block;
            -webkit-animation: rotate 6s linear infinite;
            animation: rotate 6s linear infinite;
}

        @-webkit-keyframes rotate {
            from {
                transform: rotate(0deg);
            }
            to {
                transform: rotate(360deg);
            }
        }

        @keyframes rotate {
            from {
                transform: rotate(0deg);
            }
            to {
                transform: rotate(360deg);
            }
        }

        /* Apply the rotation to the inner path */
        path {
            transform-origin: center;
            -webkit-animation: rotate 6s linear infinite;
            animation: rotate 6s linear infinite;
            }
        }
        ]]>
    </style>
    <circle cx="24" cy="24" r="19.987"/><path d="M41.639 15.904h-.289v.289h-.579v.289h-.578v.289h-.579v.289h-.578v.29h-.578v.289h-.578v.289h-.579v.289h-.578v.289h-.579v.289h-.578v.289h-.578v.289h-.578v.29h-.579v.289h-.578v.289h-.578v.289h-.579v.289h-.578v.289h-.578v.289h-.579v.29h-.289v.578h-.289v.868h.578v.289h2.025v.289h.289v-.289h.867v.289h.289v-.289h1.446v.289h.289v-.289h.578v.289h.29v.867h-6.362v.289h-.289v-.289H27.18v.289h-.288v-.289h-1.446v.289h-.289v.29h-.29v.578h-.289v.289h.289v.289h-.289v.868h.289v.289h-.289v1.446h.289v.289h-.289v1.156h.289v.289h-.289v.579h.289v.289h-.289v1.446h-.867v-.578h-.289v-.29h.289v-.289h-.289v-.578h.289v-.579h-.289v-.289h.289v-.289h-.289v-.289h.289v-.289h-.289v-.289h.289v-.289h-.289v-1.735h-.579v-.289h-.289v.289h-.289v-.289h-.289v.289h-.579v.578h-.578v.578h-.289v.29h-.578v.578h-.289v.289h-.579v.578h-.578v.578h-.578v.29h-.289v.578h-.289v.289h-.579v.579h-.578v.578h-.289v.289h-.579v.578h-.289v.289h-.578v.579h-.578v.578h-.579v.579h-.578v.578h-.867v-.29h-.29v-.288h.29v-.579h.288v-.289h.579v-.578h.578v-.29h.289v-.578h.29v-.289h.289v-.289h.578v-.578h.289v-.29h.289v-.289h.579v-.578h.289v-.289h.289v-.29h.289v-.289h.289v-1.156h-.289v-.289h-1.446v.289h-.867v.289h-.289v.289h-.579v.289h-.578v.289h-.868v.289h-.288v.29h-.868v.289h-.289v.289h-.579v.289h-.578v.289h-.578v.29h-.578v.289h-.579v.289H6.65v-.578h.29v-.579h.867v-.289h.289v-.289h.868v-.289h.578v-.29h.578v-.289h.29v-.289h.867v-.289h.579v-.289h.288v-.289h.868v-.289h.578v-.289h.29v-.29h.578v-.289h.867v-.289h.579v-.289h.289v-.289h.867v-.289h.29v-.289h.578v-.29h.289v-.578h.289v-.289h-.289v-.579h-.578v-.289h-5.783v-.289h-.29v-.578h.578v-.289h.579v.289h.289v-.289h.578v.289h.29v-.289h.578v.289h.289v-.289h1.157v.289h.289v-.289h1.157v.289h.289v-.289h.578v.289h.289v-.289h1.157v.289h.289v-.289h.578v.289h.289v-.289h.578v.289h.29v-.289h1.156v-.289h.579v-.29h.289v-.289h-.289v-.578h.289v-.289h-.289v-.29h.289v-.289h-.289v-.289h.289v-.578h-.289v-.289h.289v-.289h-.289v-.29h.289v-.289h-.289v-.578h.289v-.289h-.289v-.289h.289v-.289h-.289v-.289h.289v-.579h-.289v-.289h.289v-.289h-.289v-.289h.289v-.29h-.289v-.289H24v-.289h.289v.289h.289v1.157h.289v.289h-.289v.579h.289v.289h-.289v.867h.289v.289h-.289v1.157h.289v.289h-.289v.289h.289v.289h.29v.289h1.156v-.289h.29v-.289h.577v-.578h.29v-.289h.578v-.29h.289v-.289h.29v-.289h.289v-.578h.289v-.289h.578v-.289h.289v-.579h.289v-.289h.579v-.578h.578v-.289h.289v-.29h.289v-.289h.29v-.578h.289v-.289h.578v-.578h.578v-.29h.289v-.289h.29v-.578h.578v-.289h.289v-.29h.289v-.578h.868v.578h.289v.29h-.289v.289h-.578v.578h-.29v.289h-.289v.29h-.578v.578h-.579v.289h-.289v.578h-.289v.289h-.578v.579h-.578v.578h-.29v.289h-.289v.29h-.289v.289h-.289v1.445h.289v.289h.578v-.289h1.157v-.289h.578v-.289h.579v-.289h.578v-.289h.289v-.289h.867v-.289h.579v-.29h.289v-.289h.868v-.289h.578v-.289h.578v-.289h.578v-.29h.29v-.289h.867v-.289h.579v.578h.289v.29zM48 21.976v-.579h-.289v-1.734h-.289v-1.157h-.289V17.35h-.29v-.868h-.289v-1.157h-.289v-.578h-.289v-.578h-.289v-.579h-.29v-.289h-.289v-.289h.289v-.289h-.289v-.289h-.289v-.578h-.289v-.29h-.289v-.578h-.289v-.289h-.289v-.579h-.29v-.289h-.289v-.289h-.289v-.578h-.289v-.289h-.289v-.289h-.289v-.29h-.289v-.289h-.289v-.289h-.29v-.289h-.289V6.94h-.289v-.29h-.289v-.289h-.289v-.289h-.29v-.289h-.289v-.289h-.289v-.289h-.578v-.289h-.289v-.289h-.579v-.29h-.289v-.289h-.578v-.289h-.289V3.47h-.578v-.289h-.579v-.289h-.578v-.289h-.289v-.29h-1.157v-.289h-.289v-.289h-.868v-.289h-.867v-.289h-.868v-.29h-.289v.29h-.289v-.29h-.578V.578H27.47V.289h-.29v.289h-.288V.289h-1.735V0h-.29v.289h-.289V0h-.289v.289h-1.156V0h-.29v.289h-2.024v.289h-2.024v.289h-.578v.29h-1.446v.289h-.578v.289h-.868v.289h-.867v.289h-.578v.29h-.579v.289h-.578v.289h-.289v.289h-.578v.289h-.579v.289h-.289v.289h-.578v.29h-.29v.289h-.578v.289h-.289v.289h-.289v.289h-.289v.289h-.289v.289h-.579v.289h-.289v.579H6.94v.289h-.29v.578h-.578v.579h-.289v.289h-.289v.289h-.289v.289h-.289v.578h-.29v.29h-.289v.578h-.289v.578h-.289v.29H3.47v.288h-.289v.579h-.289v.578h-.289v.579h-.29v.578h-.289v.867h-.289v.579h-.289v1.156h-.289v.579h-.29v.289h.29v.289h-.29v.867H.578v1.446H.289v.289h.289v.289H.289v3.47H0v.289h.289v2.603h.289v1.446h.289v1.445h.29v.868h.289v.867h.289v.579h.289v.867h.289v.578h.29v.579h.289v.578h.289v.579h.289v.578h.289v.578h.289v.289h.289v.289h.289v.29h.29v.578h.289v.289h.289v.289h.289v.578h.289v.29h.289v.289h.289v.289h.29v.289h.289v.289h.289v.29h.289v.289h.289v.289h.29v.289h.578v.289h.289v.289h.289v.289h.578v.29h.29v.289h.289v.289h.578v.289h.289v.289h.578v.289h.579v.289h.289v.289h.868v.29h.578v.289h.578v.289h.868v.289h.578v.289h1.157v.29h.867v.289h1.446v.289h1.735V48h.289v-.289h.289V48h.289v-.289h.289V48h.29v-.289h.289V48h2.024v-.289h.289V48h.578v-.289h1.735v-.289h1.735v-.289h.867v-.29h.868v-.289h.868v-.289h.578v-.289h.867v-.289h.579v-.29h.578v-.289h.578v-.289h.578v-.289h.579v-.289h.289v-.289h.289v-.289h.579v-.289h.578v-.29h.289v-.289h.289v-.289h.289v-.289h.289v-.289h.29v-.289h.578v-.289h.289v-.579h.579v-.578h.578v-.579h.289v-.289h.289v-.289h.289v-.289h.289v-.578h.289v-.289h.29v-.29h.289v-.578h.289v-.289h.289v-.579h.289v-.578h.289v-.289h.289v-.578h.29v-.868h.289v-.578h.289v-.578h.289v-.868h.289v-.867h.29v-1.446h.289v-.578h.289v-.579h-.289v-.289h.289v-1.445H48v-.579h-.289v-.289H48v-.868h-.289v-.289H48v-.867h-.289v-.289H48v-1.157h-.289v-.289H48z" fill="rgb(211, 211, 211)" fill-rule="nonzero"/>
</svg>