<svg xmlns="http://www.w3.org/2000/svg" width="48px" height="48px" viewBox="0 0 100 100" fill-rule="nonzero" stroke-linejoin="round" stroke-miterlimit="2" fill="#fffefc" xmlns:v="https://vecta.io/nano"><path d="M97.59 48.193h-.602v.602h.602v6.627h-.602v.602h.602v.603h-.602v3.614h-.602v2.41h-.603v1.807h-.602v1.807h-.602v2.41h-.603v.602h-.603v1.205h-.602v1.205h-.603v1.807h-.602v.602h-.602v1.206h-.603v.602h-.602v.602h-.602v1.205h-.603v1.205h-.602v.602h-.602v.602h-.603v.603h-.603v.602h-.602v.603h-.603v1.205h-.602v.602h-1.205v1.205h-1.204v.602h-.603v.603h-.602v.602h-.602v.602h-.603v.603h-1.205v.602h-.603v.602h-.602v.604h-1.205v.602h-1.204v.602h-.603v.603h-1.204v.602h-1.206v.602h-1.204v.603h-1.808v.602h-.602v.602h-1.807v.603h-1.808v.602h-.601v-.602h-.603v1.204h-.603v-.602h-.602v.602h-2.409v.603h-3.615v.603h-.603v-.603h-.602v.603h-7.831v-.603h-.603v.603h-1.204v-.603h-.603v.603h-.602v-.603h-3.013v-.603h-3.011v-.602h-1.807v-.602h-1.808v-.603h-1.205v-.602h-1.807v-.602h-1.807v-.603h-.602v-.602h-1.808v-.602h-.602v-.603h-.603v-.602h-1.204v-.602h-.603v-.604h-1.205v-.602h-1.204v-.602h-.603v-.603h-.602v-.602h-1.205v-.602h-.603V84.94H17.47v-.602h-.603v-.603h-.602v-1.204H15.06v-.603h-.602v-.603h-.602V80.12h-.603v-.602h-.603v-.602h-.602v-.603h-.603v-1.204h-.602v-.603h-.602v-1.204h-.603v-.603h-.602v-1.808h-.602v-.602h-.603v-1.205h-.602V69.88h-.602v-1.205h-.603V67.47h-.602v-.603h.602v-.602h-.602V65.06h-.603v-1.807h-.603v-2.409h-.602v-2.41h-.602v-4.217h-.603v-.602h.603v-1.206h-.603v-.601h.603v-.603h-.603v-.603h.603V50h-.603v-.602h.603v-.603h-.603v-1.204h.603v-3.013h.602v-.602h-.602v-1.205h.602v-.602h-.602v-.603h.602v-2.409h.602v-2.41h.603v-2.41h.603v-1.204h.602v-.603h.603v-1.807h.602v-1.807h.602v-1.205h.603v-.602h.602v-1.205h.602v-1.205h.603v-.602h.602v-1.206h.602v-.602h.603v-.602h.602v-1.205h.603v-.602h.603v-.603h.602v-.602h.602V17.47h1.205v-.602h.602v-1.206h1.205v-.601h.602v-.603h.603v-.603h.602v-.602h.603v-.602h1.205v-.603h.602v-.602h.602v-.602h1.205v-.603h.603v-.602h1.204v-.602h1.205v-.603h.602v-.602h1.808v-.603h.602v-.603h1.205v-.602h2.409v-.602h.603v-.603h3.012v-.602h1.807v-.602h3.012v-.603h.603v.603h.603v-.603h2.409V2.41h.602v.602h1.807V2.41H50v.602h.603V2.41h.602v.602h.602V2.41h.603v.602h.602V2.41h.602v.602h4.217v.603h3.615v.602h1.807v.602h2.41v.603h1.204v.602h1.807v.602h1.205v.603h1.205v.603h1.205v.602h1.205v.603h1.205v.602h.602v.602h1.205v.603h.602v.602h1.205v.602h.602v.603h.603v.602h.603v.602h1.204v.603h.603v.603h.602v.601h.602v.604h.603v.602h.602v.602h.602v.603h.603v.602h.602v.602h.603v.603h.603v1.204h.602v.603h.602v.602h.603v1.205h.602v.603h.602v1.204h.603v1.205h.602v.603h.602v1.204h.603v.603h.602v2.41h.603v1.204h.603v1.205h.602v2.409h.602v1.205h.603v3.013h.602v3.614h.602v4.217zm2.41-2.409v-1.206h-.603v-3.614h-.602v-2.409h-.602v-2.411h-.603v-1.807h-.602v-2.409h-.602v-1.205h-.603v-1.205h-.602v-1.205h-.602v-.602h-.603v-.602h.603v-.603h-.603v-.602h-.603v-1.205h-.602v-.602h-.603v-1.206h-.602v-.602h-.602v-1.205h-.603v-.602h-.602v-.602h-.602v-1.205h-.603v-.602h-.602v-.603h-.602v-.602h-.603v-.602h-.603v-.604h-.602v-.601h-.603v-.603h-.602v-.603h-.602v-.602h-.603v-.602h-.602v-.603h-.602v-.602h-.603v-.602h-1.204v-.603h-.603v-.602h-1.205v-.602h-.603v-.603h-1.204v-.602h-.603v-.603h-1.204v-.603h-1.205v-.602h-1.205v-.602h-.603v-.603h-2.409v-.602h-.603v-.602h-1.807v-.603H65.06V2.41h-1.807v-.602h-.603v.602h-.602v-.602h-1.205v-.603h-3.614V.603h-.603v.602h-.602V.603H52.41V0h-.603v.603h-.602V0h-.602v.603h-2.411V0h-.602v.603h-4.216v.602h-4.218v.603h-1.204v.602h-3.013v.602h-1.205v.603h-1.807v.602H30.12v.602h-1.204v.603H27.71v.602h-1.204v.602h-.603v.603h-1.204v.603h-1.205v.602h-.603v.603h-1.204v.602h-.603v.602h-1.205v.603h-.602v.602h-.603v.602h-.602v.603h-.602v.602h-1.205v.602h-.602v1.206h-1.205v.601h-.602v1.206H12.65v1.205h-.602v.602h-.603v.602h-.602v.603h-.602v1.204h-.603v.603h-.602v1.204h-.602v1.206h-.603v.602h-.602v.602h-.602v1.205h-.603v1.205h-.602v1.205h-.603v1.204h-.603v1.808h-.602v1.205h-.602v2.409h-.603v1.205h-.602v.602h.602v.603h-.602v1.807h-.602v3.012H.602v.602h.603v.603H.602v7.229H0v.603h.602v5.421h.603v3.012h.602v3.012h.602v1.807h.603v1.807h.602v1.206h.602v1.807h.603v1.204h.603v1.205h.602v1.205h.603v1.205h.602v1.205h.602v1.205h.603v.602h.602v.602h.602v.603h.603v1.204h.602v.603h.602v.602h.603v1.206h.602v.602h.603v.602h.603v.603h.602v.602h.602v.602h.603v.603h.602v.602h.602v.602h.603v.603h1.204v.602h.603v.602h.602v.604h1.205v.602h.603v.602h.602v.603h1.205v.602h.602v.602h1.205v.603h1.205v.602h.602v.602h1.808v.603h1.204v.602h1.205v.602h1.807v.603h1.205v.603h2.41v.602h1.807v.603h3.012v.602h3.615V100h.602v-.602h.602V100h.603v-.602h.602V100h.602v-.602h.603V100h4.217v-.602h.602V100h1.205v-.602h3.615v-.602h3.614v-.603h1.808v-.602h1.807v-.603h1.807v-.603h1.204v-.602h1.808v-.602h1.204v-.603h1.206v-.602h1.204v-.602h1.205v-.603h1.205v-.602h.602v-.602h.602v-.603h1.205v-.602h1.206v-.602h.602v-.604h.602v-.602h.603v-.602h.602v-.603h.602v-.602h1.205v-.602h.602V84.94h1.205v-1.205h1.206v-1.204h.602v-.603h.602v-.603h.603v-.602h.602v-1.205h.602v-.602h.603v-.603h.602v-1.204h.602v-.603h.603v-1.204h.602v-1.206h.603v-.602h.603v-1.205h.602v-1.807h.602v-1.205h.603v-1.204h.602v-1.808h.602v-1.807h.603v-3.012h.602v-1.205h.602v-1.205h-.602v-.602h.602v-3.012H100v-1.205h-.603v-.602H100v-1.807h-.603v-.603H100v-1.807h-.603v-.603H100v-2.409h-.603v-.602H100z"/><path d="M86.144 31.326H84.94v.602h-1.807v.602h-.603v.603h-1.205v.602H80.12v.602h-1.205v.603h-1.807v.602h-.602v.603h-1.205v.602h-1.807v.603h-.603v.602h-1.204v.603h-1.205v.602h-1.205v.602h-2.41v.603h-1.205v-.603h-.602v-3.012h.602v-.602h.603v-.603h.602v-.602h.602v-1.205h1.206V32.53h1.204v-.602h.603v-1.205h.602v-.602h1.205v-1.205h1.205v-.602h.602v-.603h.602v-1.205h1.206v-.602h.602v-.603h-.602v-1.204h-1.808v1.204h-.602v.603h-.603v.602h-1.204v1.205h-.603v.603h-.602v.602h-1.205v1.205h-1.205v.602h-.603v1.205h-.602v.602h-.602v.603h-.603v.602h-1.204v1.205h-1.205v.602h-.602v1.205h-.603v.603h-1.204v.602h-.603v1.205h-.603v.602h-.602v.603h-.603v.602h-1.204v.602h-.603v1.205h-1.204v.602h-.603v.603h-2.41v-.603h-.602v-.602h-.603v-.602h.603v-.603h-.603v-2.409h.603v-.602h-.603v-1.808h.603v-.602h-.603V34.94h.603v-.603h-.603v-2.409h-.602v-.602H50v.602h-1.205v.602h.602v.603h-.602v.602h.602v.602h-.602v.603h.602v1.205h-.602v.602h.602v.603h-.602v.602h.602v.603h-.602v1.204h.602v.603h-.602v.602h.602v.602h-.602v.603h.602v1.204h-.602v.603h.602v.603h-.602v.602h.602v.602h-.602v1.205h.602v.602h-.602v.603H47.59v.602h-2.41v.602h-.602v-.602h-1.205v.602h-.602v-.602h-1.205v.602h-.602v-.602h-2.41v.602h-.603v-.602h-1.204v.602h-.603v-.602h-2.409v.602h-.603v-.602h-2.41v.602h-.602v-.602h-1.205v.602h-.602v-.602h-1.205v.602h-.602v-.602h-1.205v.602h-1.204v1.205h.602v.603h12.048v.603h1.204v1.204h.603v.603h-.603v1.204h-.602v.603h-1.205v.602h-.602v.602h-1.807v.603h-.603v.602h-1.204v.603H30.12v.603h-1.205v.602h-.602v.602h-1.205v.603h-1.807v.602h-.602v.602h-1.205v.603h-1.808v.602h-.602v.602h-1.205v.603h-1.204v.602h-1.807v.603h-.603v.603h-1.808v1.204h-.602v1.205h2.41v-.602h1.205v-.603h1.205v-.602h1.204v-.602h1.205v-.603h1.205v-.603h.602v-.602h1.808v-.603h.602v-.602h1.807v-.602h1.205v-.603h1.205v-.602h.602v-.602h1.808v-.603h3.011v.603h.603v2.409h-.603v.602h-.602v.603h-.602v.602h-.603v1.206h-1.204v.602h-.603v.602h-.603v1.205h-1.204v.602h-.603v.603h-.602v1.204h-.602v.603h-1.205v1.205h-1.205v.602h-.602v1.205h-.602v.603h.602v.602h1.807v-1.205h1.205v-1.205h1.204v-1.205h1.205v-1.205h1.205v-.602h.603v-1.205h1.204v-.602h.603V67.47h1.204v-1.204h1.205v-.603h.603v-1.205h.602v-.603h1.205v-1.204h1.205v-1.205h1.205v-.602h.602v-1.205h1.205v-.602h.602v-1.206h1.205v-1.205h1.205v-.602h.603v.602h.602v-.602h.602v.602h1.205v3.615h.602v.603h-.602v.602h.602v.602h-.602v.603h.602v.602h-.602v.602h.602v1.205h-.602v1.206h.602v.602h-.602v.602h.602v1.205h1.807v-3.012h.603v-.603h-.603v-1.205h.603v-.602h-.603v-2.409h.603v-.603h-.603v-3.012h.603v-.603h-.603v-1.807h.603v-.602h-.603v-.602h.603V52.41h.602v-.602h.603v-.603h3.012v.603h.602v-.603h5.422v.603h.603v-.603h13.253v-1.808h-.603v-.602h-1.205v.602h-.602v-.602h-3.012v.602h-.603v-.602h-1.807v.602h-.603v-.602h-4.216v-.602h-1.205v-1.807h.603v-1.205h.602v-.602h1.205v-.603h1.204v-.603h1.205v-.602h1.205v-.602h1.205v-.603h1.205v-.602h1.205v-.602h1.204v-.603h1.205v-.602h1.205v-.602h1.205v-.603h1.205v-.602h1.204v-.603h1.205v-.602h1.205v-.603h1.205v-.602h1.205v-.603h1.205v-.602h1.204v-.602h.603v-.603h-.603v-1.204z"/></svg>